<?xml version="1.0" encoding="UTF-8"?>
<svg id="Lag_1" data-name="Lag 1" xmlns="http://www.w3.org/2000/svg" viewBox="0 0 1019.41 222.86">
  <defs>
    <style>
      .cls-1 {
        fill: #fff;
      }

      .cls-2 {
        fill: #0b8b8c;
      }
    </style>
  </defs>
  <g>
    <g>
      <circle class="cls-2" cx="111.43" cy="111.43" r="111.43"/>
      <rect class="cls-1" x="80.7" y="89.52" width="28.73" height="28.73" transform="translate(-45.65 98.53) rotate(-45.36)"/>
      <rect class="cls-1" x="103.69" y="117.84" width="28.73" height="19.81" transform="translate(-55.79 121.98) rotate(-45.36)"/>
      <rect class="cls-1" x="54.02" y="116.59" width="28.73" height="28.73" transform="translate(-72.85 87.6) rotate(-45.36)"/>
      <rect class="cls-1" x="107.59" y="62.97" width="28.73" height="28.73" transform="translate(-18.76 109.77) rotate(-45.36)"/>
      <rect class="cls-1" x="133.43" y="89.73" width="28.73" height="28.73" transform="translate(-30.12 136.11) rotate(-45.36)"/>
    </g>
    <g>
      <g>
        <path d="m286.72,168.91v1.65h-12.79v-18.09h12.4v1.65h-10.49v6.44h9.35v1.63h-9.35v6.72h10.88Z"/>
        <path d="m307.64,152.48v18.09h-1.58l-11.63-14.68v14.68h-1.91v-18.09h1.58l11.65,14.68v-14.68h1.89Z"/>
        <path d="m322.9,152.48h7.36c5.79,0,9.69,3.72,9.69,9.05s-3.9,9.04-9.69,9.04h-7.36v-18.09Zm7.26,16.43c4.81,0,7.91-3.05,7.91-7.39s-3.1-7.39-7.91-7.39h-5.35v14.78h5.35Z"/>
        <path d="m358.34,168.91v1.65h-12.79v-18.09h12.4v1.65h-10.49v6.44h9.35v1.63h-9.35v6.72h10.88Z"/>
        <path d="m364.14,152.48h1.91v16.43h10.13v1.65h-12.04v-18.09Z"/>
        <path d="m400.06,165.73h-10.08l-2.17,4.83h-1.99l8.27-18.09h1.89l8.27,18.09h-2.02l-2.17-4.83Zm-.7-1.55l-4.34-9.72-4.34,9.72h8.68Z"/>
        <path d="m410.46,154.13v7.11h9.35v1.65h-9.35v7.67h-1.91v-18.09h12.4v1.65h-10.49Z"/>
      </g>
      <g>
        <path d="m449.64,166.77h-10.18l-2.01,4.71h-3.9l9.16-20.37h3.72l9.19,20.37h-3.96l-2.04-4.71Zm-1.25-2.97l-3.84-8.9-3.81,8.9h7.65Z"/>
        <path d="m460.52,162.61v-11.49h3.78v11.35c0,4.19,1.89,5.99,5.18,5.99s5.15-1.8,5.15-5.99v-11.35h3.72v11.49c0,5.93-3.35,9.16-8.9,9.16s-8.93-3.23-8.93-9.16Z"/>
        <path d="m490.3,154.31h-6.75v-3.2h17.28v3.2h-6.75v17.17h-3.78v-17.17Z"/>
        <path d="m504.84,161.3c0-6.02,4.66-10.47,10.97-10.47s10.97,4.42,10.97,10.47-4.66,10.47-10.97,10.47-10.97-4.45-10.97-10.47Zm18.12,0c0-4.16-3.05-7.16-7.16-7.16s-7.15,3-7.15,7.16,3.05,7.15,7.15,7.15,7.16-3,7.16-7.15Z"/>
        <path d="m531.98,169.33l1.31-2.94c1.63,1.31,4.22,2.24,6.72,2.24,3.17,0,4.51-1.14,4.51-2.65,0-4.39-12.1-1.51-12.1-9.08,0-3.29,2.62-6.08,8.2-6.08,2.45,0,5.01.64,6.78,1.8l-1.19,2.94c-1.83-1.08-3.84-1.6-5.61-1.6-3.14,0-4.42,1.22-4.42,2.76,0,4.34,12.07,1.51,12.07,8.99,0,3.26-2.65,6.05-8.23,6.05-3.17,0-6.34-.99-8.03-2.44Z"/>
        <path d="m553.44,161.3c0-6.02,4.66-10.47,10.97-10.47s10.97,4.42,10.97,10.47-4.66,10.47-10.97,10.47-10.97-4.45-10.97-10.47Zm18.12,0c0-4.16-3.05-7.16-7.16-7.16s-7.15,3-7.15,7.16,3.05,7.15,7.15,7.15,7.16-3,7.16-7.15Z"/>
        <path d="m582.12,162.61v-11.49h3.78v11.35c0,4.19,1.89,5.99,5.18,5.99s5.15-1.8,5.15-5.99v-11.35h3.72v11.49c0,5.93-3.35,9.16-8.9,9.16s-8.93-3.23-8.93-9.16Z"/>
        <path d="m621.48,171.48l-4.16-5.96c-.26.03-.52.03-.79.03h-4.6v5.93h-3.78v-20.37h8.38c5.36,0,8.67,2.74,8.67,7.25,0,3.08-1.57,5.35-4.34,6.43l4.68,6.69h-4.07Zm-5.12-17.17h-4.42v8.12h4.42c3.32,0,5.03-1.51,5.03-4.07s-1.72-4.05-5.03-4.05Z"/>
        <path d="m630.87,161.3c0-6.08,4.66-10.47,10.91-10.47,3.32,0,6.17,1.19,8.06,3.41l-2.44,2.3c-1.49-1.6-3.32-2.39-5.44-2.39-4.22,0-7.27,2.97-7.27,7.16s3.05,7.15,7.27,7.15c2.12,0,3.95-.78,5.44-2.41l2.44,2.33c-1.89,2.21-4.74,3.4-8.09,3.4-6.23,0-10.88-4.39-10.88-10.47Z"/>
        <path d="m671.66,168.31v3.17h-15.27v-20.37h14.87v3.17h-11.09v5.3h9.83v3.11h-9.83v5.61h11.49Z"/>
        <path d="m703.62,161.06h3.58v8.12c-2.12,1.72-5.09,2.59-7.97,2.59-6.31,0-10.97-4.39-10.97-10.47s4.66-10.47,11.03-10.47c3.4,0,6.26,1.13,8.17,3.32l-2.39,2.33c-1.6-1.6-3.43-2.33-5.61-2.33-4.33,0-7.39,2.94-7.39,7.16s3.05,7.15,7.36,7.15c1.45,0,2.88-.29,4.19-1.04v-6.34Z"/>
        <path d="m728.4,171.48l-4.16-5.96c-.26.03-.52.03-.79.03h-4.6v5.93h-3.78v-20.37h8.38c5.35,0,8.67,2.74,8.67,7.25,0,3.08-1.57,5.35-4.34,6.43l4.69,6.69h-4.07Zm-5.12-17.17h-4.42v8.12h4.42c3.31,0,5.03-1.51,5.03-4.07s-1.72-4.05-5.03-4.05Z"/>
        <path d="m737.79,161.3c0-6.02,4.66-10.47,10.97-10.47s10.97,4.42,10.97,10.47-4.66,10.47-10.97,10.47-10.97-4.45-10.97-10.47Zm18.12,0c0-4.16-3.05-7.16-7.16-7.16s-7.15,3-7.15,7.16,3.05,7.15,7.15,7.15,7.16-3,7.16-7.15Z"/>
        <path d="m766.47,162.61v-11.49h3.78v11.35c0,4.19,1.89,5.99,5.18,5.99s5.15-1.8,5.15-5.99v-11.35h3.72v11.49c0,5.93-3.35,9.16-8.9,9.16s-8.93-3.23-8.93-9.16Z"/>
        <path d="m809.55,158.36c0,4.48-3.32,7.24-8.67,7.24h-4.6v5.88h-3.78v-20.37h8.38c5.36,0,8.67,2.74,8.67,7.25Zm-3.81,0c0-2.56-1.72-4.05-5.03-4.05h-4.42v8.09h4.42c3.32,0,5.03-1.48,5.03-4.04Z"/>
      </g>
    </g>
  </g>
  <g>
    <path d="m289.85,60.39v18.44h32.3v12.96h-32.3v25.42h-16.15V47.43h52.74v12.96h-36.59Z"/>
    <path d="m340.58,47.43h16.15v69.78h-16.15V47.43Z"/>
    <path d="m440.47,47.43v69.78h-13.26l-34.79-42.37v42.37h-15.95V47.43h13.36l34.69,42.37v-42.37h15.95Z"/>
    <path d="m460.2,47.43h31.7c22.83,0,38.48,13.76,38.48,34.89s-15.65,34.89-38.48,34.89h-31.7V47.43Zm30.9,56.53c13.86,0,22.93-8.27,22.93-21.63s-9.07-21.63-22.93-21.63h-14.75v43.27h14.75Z"/>
    <path class="cls-2" d="m556.79,47.43h16.15v56.63h34.99v13.16h-51.14V47.43Z"/>
    <path class="cls-2" d="m674.22,104.26v12.96h-54.03V47.43h52.74v12.96h-36.69v15.15h32.4v12.56h-32.4v16.15h37.98Z"/>
    <path class="cls-2" d="m736.22,102.26h-32.4l-6.18,14.95h-16.55l31.1-69.78h15.95l31.2,69.78h-16.95l-6.18-14.95Zm-5.08-12.26l-11.07-26.72-11.07,26.72h22.13Z"/>
    <path class="cls-2" d="m764.32,110.34l5.48-12.16c5.88,4.29,14.66,7.28,23.03,7.28,9.57,0,13.46-3.19,13.46-7.48,0-13.06-40.57-4.09-40.57-30.01,0-11.86,9.57-21.73,29.41-21.73,8.77,0,17.75,2.09,24.23,6.18l-4.98,12.26c-6.48-3.69-13.16-5.48-19.34-5.48-9.57,0-13.26,3.59-13.26,7.97,0,12.86,40.57,3.99,40.57,29.61,0,11.66-9.67,21.63-29.61,21.63-11.07,0-22.23-3.29-28.41-8.08Z"/>
    <path class="cls-2" d="m836.59,47.43h16.15v69.78h-16.15V47.43Z"/>
    <path class="cls-2" d="m936.48,47.43v69.78h-13.26l-34.79-42.37v42.37h-15.95V47.43h13.36l34.69,42.37v-42.37h15.95Z"/>
    <path class="cls-2" d="m1003.36,81.23h14.76v28.31c-7.68,5.78-18.24,8.87-28.21,8.87-21.93,0-38.08-15.05-38.08-36.09s16.15-36.09,38.38-36.09c12.26,0,22.43,4.19,29.21,12.06l-10.37,9.57c-5.08-5.38-10.97-7.88-18.04-7.88-13.56,0-22.83,9.07-22.83,22.33s9.27,22.33,22.63,22.33c4.39,0,8.47-.8,12.56-2.99v-20.44Z"/>
  </g>
</svg>